<mxfile host="Electron" modified="2024-04-06T17:34:11.133Z" agent="Mozilla/5.0 (Windows NT 10.0; Win64; x64) AppleWebKit/537.36 (KHTML, like Gecko) draw.io/21.2.1 Chrome/112.0.5615.87 Electron/24.1.2 Safari/537.36" etag="d9CFzg_aoyoW6udeRYti" version="21.2.1" type="device">
  <diagram name="Страница 1" id="MjM8atwmFTBdKikvB9HT">
    <mxGraphModel dx="1228" dy="1003" grid="1" gridSize="10" guides="1" tooltips="1" connect="1" arrows="1" fold="1" page="1" pageScale="1" pageWidth="827" pageHeight="1169" math="0" shadow="0">
      <root>
        <mxCell id="0" />
        <mxCell id="1" parent="0" />
        <mxCell id="OyeXviNaBBDYaVGBEZ_P-1" value="main" style="ellipse;whiteSpace=wrap;html=1;" vertex="1" parent="1">
          <mxGeometry x="350" y="570" width="120" height="80" as="geometry" />
        </mxCell>
        <mxCell id="OyeXviNaBBDYaVGBEZ_P-20" value="Action" style="swimlane;fontStyle=1;align=center;verticalAlign=top;childLayout=stackLayout;horizontal=1;startSize=26;horizontalStack=0;resizeParent=1;resizeParentMax=0;resizeLast=0;collapsible=1;marginBottom=0;whiteSpace=wrap;html=1;" vertex="1" parent="1">
          <mxGeometry x="1000" y="160" width="160" height="164" as="geometry" />
        </mxCell>
        <mxCell id="OyeXviNaBBDYaVGBEZ_P-7" value="BigRealNumber term1" style="text;strokeColor=none;fillColor=none;align=left;verticalAlign=top;spacingLeft=4;spacingRight=4;overflow=hidden;rotatable=0;points=[[0,0.5],[1,0.5]];portConstraint=eastwest;whiteSpace=wrap;html=1;" vertex="1" parent="OyeXviNaBBDYaVGBEZ_P-20">
          <mxGeometry y="26" width="160" height="26" as="geometry" />
        </mxCell>
        <mxCell id="OyeXviNaBBDYaVGBEZ_P-8" value="BigRealNumber term2" style="text;strokeColor=none;fillColor=none;align=left;verticalAlign=top;spacingLeft=4;spacingRight=4;overflow=hidden;rotatable=0;points=[[0,0.5],[1,0.5]];portConstraint=eastwest;whiteSpace=wrap;html=1;" vertex="1" parent="OyeXviNaBBDYaVGBEZ_P-20">
          <mxGeometry y="52" width="160" height="26" as="geometry" />
        </mxCell>
        <mxCell id="OyeXviNaBBDYaVGBEZ_P-10" value="Operation oper" style="text;strokeColor=none;fillColor=none;align=left;verticalAlign=top;spacingLeft=4;spacingRight=4;overflow=hidden;rotatable=0;points=[[0,0.5],[1,0.5]];portConstraint=eastwest;whiteSpace=wrap;html=1;" vertex="1" parent="OyeXviNaBBDYaVGBEZ_P-20">
          <mxGeometry y="78" width="160" height="26" as="geometry" />
        </mxCell>
        <mxCell id="OyeXviNaBBDYaVGBEZ_P-62" value="Result res;" style="text;strokeColor=none;fillColor=none;align=left;verticalAlign=top;spacingLeft=4;spacingRight=4;overflow=hidden;rotatable=0;points=[[0,0.5],[1,0.5]];portConstraint=eastwest;whiteSpace=wrap;html=1;" vertex="1" parent="OyeXviNaBBDYaVGBEZ_P-20">
          <mxGeometry y="104" width="160" height="26" as="geometry" />
        </mxCell>
        <mxCell id="OyeXviNaBBDYaVGBEZ_P-22" value="" style="line;strokeWidth=1;fillColor=none;align=left;verticalAlign=middle;spacingTop=-1;spacingLeft=3;spacingRight=3;rotatable=0;labelPosition=right;points=[];portConstraint=eastwest;strokeColor=inherit;" vertex="1" parent="OyeXviNaBBDYaVGBEZ_P-20">
          <mxGeometry y="130" width="160" height="8" as="geometry" />
        </mxCell>
        <mxCell id="OyeXviNaBBDYaVGBEZ_P-19" value="perform()" style="text;strokeColor=none;fillColor=none;align=left;verticalAlign=top;spacingLeft=4;spacingRight=4;overflow=hidden;rotatable=0;points=[[0,0.5],[1,0.5]];portConstraint=eastwest;whiteSpace=wrap;html=1;" vertex="1" parent="OyeXviNaBBDYaVGBEZ_P-20">
          <mxGeometry y="138" width="160" height="26" as="geometry" />
        </mxCell>
        <mxCell id="OyeXviNaBBDYaVGBEZ_P-28" value="ActionsFromXML" style="swimlane;fontStyle=1;align=center;verticalAlign=top;childLayout=stackLayout;horizontal=1;startSize=26;horizontalStack=0;resizeParent=1;resizeParentMax=0;resizeLast=0;collapsible=1;marginBottom=0;whiteSpace=wrap;html=1;" vertex="1" parent="1">
          <mxGeometry x="250" y="170" width="260" height="112" as="geometry" />
        </mxCell>
        <mxCell id="OyeXviNaBBDYaVGBEZ_P-29" value="Qlist&amp;lt;Action&amp;gt; actions" style="text;strokeColor=none;fillColor=none;align=left;verticalAlign=top;spacingLeft=4;spacingRight=4;overflow=hidden;rotatable=0;points=[[0,0.5],[1,0.5]];portConstraint=eastwest;whiteSpace=wrap;html=1;" vertex="1" parent="OyeXviNaBBDYaVGBEZ_P-28">
          <mxGeometry y="26" width="260" height="26" as="geometry" />
        </mxCell>
        <mxCell id="OyeXviNaBBDYaVGBEZ_P-30" value="" style="line;strokeWidth=1;fillColor=none;align=left;verticalAlign=middle;spacingTop=-1;spacingLeft=3;spacingRight=3;rotatable=0;labelPosition=right;points=[];portConstraint=eastwest;strokeColor=inherit;" vertex="1" parent="OyeXviNaBBDYaVGBEZ_P-28">
          <mxGeometry y="52" width="260" height="8" as="geometry" />
        </mxCell>
        <mxCell id="OyeXviNaBBDYaVGBEZ_P-31" value="ActionsFromXML(string&amp;amp; XMLPath)" style="text;strokeColor=none;fillColor=none;align=left;verticalAlign=top;spacingLeft=4;spacingRight=4;overflow=hidden;rotatable=0;points=[[0,0.5],[1,0.5]];portConstraint=eastwest;whiteSpace=wrap;html=1;" vertex="1" parent="OyeXviNaBBDYaVGBEZ_P-28">
          <mxGeometry y="60" width="260" height="26" as="geometry" />
        </mxCell>
        <mxCell id="OyeXviNaBBDYaVGBEZ_P-35" value="QList&amp;lt;Action&amp;gt; getActions()" style="text;strokeColor=none;fillColor=none;align=left;verticalAlign=top;spacingLeft=4;spacingRight=4;overflow=hidden;rotatable=0;points=[[0,0.5],[1,0.5]];portConstraint=eastwest;whiteSpace=wrap;html=1;" vertex="1" parent="OyeXviNaBBDYaVGBEZ_P-28">
          <mxGeometry y="86" width="260" height="26" as="geometry" />
        </mxCell>
        <mxCell id="OyeXviNaBBDYaVGBEZ_P-36" value="ResultActionsToTxt" style="swimlane;fontStyle=1;align=center;verticalAlign=top;childLayout=stackLayout;horizontal=1;startSize=26;horizontalStack=0;resizeParent=1;resizeParentMax=0;resizeLast=0;collapsible=1;marginBottom=0;whiteSpace=wrap;html=1;" vertex="1" parent="1">
          <mxGeometry x="610" y="170" width="260" height="112" as="geometry" />
        </mxCell>
        <mxCell id="OyeXviNaBBDYaVGBEZ_P-38" value="string path" style="text;strokeColor=none;fillColor=none;align=left;verticalAlign=top;spacingLeft=4;spacingRight=4;overflow=hidden;rotatable=0;points=[[0,0.5],[1,0.5]];portConstraint=eastwest;whiteSpace=wrap;html=1;" vertex="1" parent="OyeXviNaBBDYaVGBEZ_P-36">
          <mxGeometry y="26" width="260" height="26" as="geometry" />
        </mxCell>
        <mxCell id="OyeXviNaBBDYaVGBEZ_P-39" value="" style="line;strokeWidth=1;fillColor=none;align=left;verticalAlign=middle;spacingTop=-1;spacingLeft=3;spacingRight=3;rotatable=0;labelPosition=right;points=[];portConstraint=eastwest;strokeColor=inherit;" vertex="1" parent="OyeXviNaBBDYaVGBEZ_P-36">
          <mxGeometry y="52" width="260" height="8" as="geometry" />
        </mxCell>
        <mxCell id="OyeXviNaBBDYaVGBEZ_P-40" value="ResultActionsToTxt(string txtPath)" style="text;strokeColor=none;fillColor=none;align=left;verticalAlign=top;spacingLeft=4;spacingRight=4;overflow=hidden;rotatable=0;points=[[0,0.5],[1,0.5]];portConstraint=eastwest;whiteSpace=wrap;html=1;" vertex="1" parent="OyeXviNaBBDYaVGBEZ_P-36">
          <mxGeometry y="60" width="260" height="26" as="geometry" />
        </mxCell>
        <mxCell id="OyeXviNaBBDYaVGBEZ_P-41" value="writeResults(QList&amp;lt;Result&amp;gt; res)" style="text;strokeColor=none;fillColor=none;align=left;verticalAlign=top;spacingLeft=4;spacingRight=4;overflow=hidden;rotatable=0;points=[[0,0.5],[1,0.5]];portConstraint=eastwest;whiteSpace=wrap;html=1;" vertex="1" parent="OyeXviNaBBDYaVGBEZ_P-36">
          <mxGeometry y="86" width="260" height="26" as="geometry" />
        </mxCell>
        <mxCell id="OyeXviNaBBDYaVGBEZ_P-43" value="" style="shape=flexArrow;endArrow=classic;html=1;rounded=0;exitX=0.408;exitY=1.09;exitDx=0;exitDy=0;exitPerimeter=0;entryX=0;entryY=0;entryDx=0;entryDy=0;" edge="1" parent="1" source="OyeXviNaBBDYaVGBEZ_P-35" target="OyeXviNaBBDYaVGBEZ_P-1">
          <mxGeometry width="50" height="50" relative="1" as="geometry">
            <mxPoint x="560" y="430" as="sourcePoint" />
            <mxPoint x="610" y="380" as="targetPoint" />
          </mxGeometry>
        </mxCell>
        <mxCell id="OyeXviNaBBDYaVGBEZ_P-44" value="list of Atcions" style="edgeLabel;html=1;align=center;verticalAlign=middle;resizable=0;points=[];" vertex="1" connectable="0" parent="OyeXviNaBBDYaVGBEZ_P-43">
          <mxGeometry x="-0.0745" y="-2" relative="1" as="geometry">
            <mxPoint as="offset" />
          </mxGeometry>
        </mxCell>
        <mxCell id="OyeXviNaBBDYaVGBEZ_P-53" value="Result" style="swimlane;fontStyle=0;childLayout=stackLayout;horizontal=1;startSize=26;fillColor=none;horizontalStack=0;resizeParent=1;resizeParentMax=0;resizeLast=0;collapsible=1;marginBottom=0;whiteSpace=wrap;html=1;" vertex="1" parent="1">
          <mxGeometry x="1000" y="350" width="140" height="156" as="geometry" />
        </mxCell>
        <mxCell id="OyeXviNaBBDYaVGBEZ_P-54" value="sring term1" style="text;strokeColor=none;fillColor=none;align=left;verticalAlign=top;spacingLeft=4;spacingRight=4;overflow=hidden;rotatable=0;points=[[0,0.5],[1,0.5]];portConstraint=eastwest;whiteSpace=wrap;html=1;" vertex="1" parent="OyeXviNaBBDYaVGBEZ_P-53">
          <mxGeometry y="26" width="140" height="26" as="geometry" />
        </mxCell>
        <mxCell id="OyeXviNaBBDYaVGBEZ_P-55" value="strint term2" style="text;strokeColor=none;fillColor=none;align=left;verticalAlign=top;spacingLeft=4;spacingRight=4;overflow=hidden;rotatable=0;points=[[0,0.5],[1,0.5]];portConstraint=eastwest;whiteSpace=wrap;html=1;" vertex="1" parent="OyeXviNaBBDYaVGBEZ_P-53">
          <mxGeometry y="52" width="140" height="26" as="geometry" />
        </mxCell>
        <mxCell id="OyeXviNaBBDYaVGBEZ_P-56" value="string result" style="text;strokeColor=none;fillColor=none;align=left;verticalAlign=top;spacingLeft=4;spacingRight=4;overflow=hidden;rotatable=0;points=[[0,0.5],[1,0.5]];portConstraint=eastwest;whiteSpace=wrap;html=1;" vertex="1" parent="OyeXviNaBBDYaVGBEZ_P-53">
          <mxGeometry y="78" width="140" height="26" as="geometry" />
        </mxCell>
        <mxCell id="OyeXviNaBBDYaVGBEZ_P-57" value="bool isError" style="text;strokeColor=none;fillColor=none;align=left;verticalAlign=top;spacingLeft=4;spacingRight=4;overflow=hidden;rotatable=0;points=[[0,0.5],[1,0.5]];portConstraint=eastwest;whiteSpace=wrap;html=1;" vertex="1" parent="OyeXviNaBBDYaVGBEZ_P-53">
          <mxGeometry y="104" width="140" height="26" as="geometry" />
        </mxCell>
        <mxCell id="OyeXviNaBBDYaVGBEZ_P-58" value="string errorCode" style="text;strokeColor=none;fillColor=none;align=left;verticalAlign=top;spacingLeft=4;spacingRight=4;overflow=hidden;rotatable=0;points=[[0,0.5],[1,0.5]];portConstraint=eastwest;whiteSpace=wrap;html=1;" vertex="1" parent="OyeXviNaBBDYaVGBEZ_P-53">
          <mxGeometry y="130" width="140" height="26" as="geometry" />
        </mxCell>
        <mxCell id="OyeXviNaBBDYaVGBEZ_P-59" value="" style="shape=flexArrow;endArrow=classic;html=1;rounded=0;exitX=1;exitY=0;exitDx=0;exitDy=0;entryX=0.502;entryY=1.058;entryDx=0;entryDy=0;entryPerimeter=0;" edge="1" parent="1" source="OyeXviNaBBDYaVGBEZ_P-1" target="OyeXviNaBBDYaVGBEZ_P-41">
          <mxGeometry width="50" height="50" relative="1" as="geometry">
            <mxPoint x="366" y="320" as="sourcePoint" />
            <mxPoint x="378" y="592" as="targetPoint" />
          </mxGeometry>
        </mxCell>
        <mxCell id="OyeXviNaBBDYaVGBEZ_P-60" value="list of Results" style="edgeLabel;html=1;align=center;verticalAlign=middle;resizable=0;points=[];" vertex="1" connectable="0" parent="OyeXviNaBBDYaVGBEZ_P-59">
          <mxGeometry x="-0.0745" y="-2" relative="1" as="geometry">
            <mxPoint as="offset" />
          </mxGeometry>
        </mxCell>
      </root>
    </mxGraphModel>
  </diagram>
</mxfile>
